<svg id="Layer_3" data-name="Layer 3" xmlns="http://www.w3.org/2000/svg" viewBox="0 0 512 344.03"><defs><style>.cls-1{fill:#4edddd;}.cls-2{fill:#fafbfc;opacity:0.3;isolation:isolate;}</style></defs><title>mask</title><path class="cls-1" d="M440,338a32,32,0,0,1-10.73,23.91C403.52,384.81,342.63,432,256,432c-18.77,0-99.7-9.17-172.54-69.93A32,32,0,0,1,72,337.52V176a672.76,672.76,0,0,0,88-32c57.77-25.66,66.55-39.27,96-40,27.66-.68,38,10.87,104,40,33.94,15,62.12,25.58,80,32Z" transform="translate(0 -95.97)"/><path class="cls-2" d="M256,104c-29.45.73-38.23,14.34-96,40a672.76,672.76,0,0,1-88,32V337.52a32,32,0,0,0,11.46,24.55A306.57,306.57,0,0,0,145,401.9v-83a72.79,72.79,0,0,1,37-63.5c69.28-39,111.09-108.84,125.42-136.09C284.45,108.2,273.81,103.56,256,104Z" transform="translate(0 -95.97)"/><path d="M496,150.53a30.78,30.78,0,0,0-31.62.83l-25.26,15.79c-25.31-9.18-50.81-19.42-75.84-30.47-20.63-9.11-35.69-16.44-47.78-22.33C288.84,101.4,276.69,95.47,255.8,96c-20.4.5-32.25,6.85-51.88,17.36-11.56,6.19-26,13.9-47.17,23.33A666.77,666.77,0,0,1,73.18,167.3L47.67,151.36a30.78,30.78,0,0,0-31.62-.83A30.79,30.79,0,0,0,0,177.78V272a31,31,0,0,0,14.65,26.42L64,329.27v8.25a39.88,39.88,0,0,0,14.33,30.69C163.4,439.18,255.08,440,256,440c80.64,0,141.63-39.23,178.59-72.15A40,40,0,0,0,448,338v-5.54l49.35-30.84A31,31,0,0,0,512,275.16V177.78A30.79,30.79,0,0,0,496,150.53ZM23.12,284.85A15.05,15.05,0,0,1,16,272V177.78a15.16,15.16,0,0,1,23.19-12.85L64,180.43v130ZM432,338A24,24,0,0,1,424,355.9C389.06,387,331.6,424,256,424c-23.87,0-100.48-12.23-167.41-68.08A23.87,23.87,0,0,1,80,337.52V182a685.09,685.09,0,0,0,83.25-30.69c21.74-9.66,36.43-17.53,48.23-23.84,19.31-10.34,28.12-15.06,44.72-15.47,17-.41,26.6,4.25,52.24,16.74,12.22,5.95,27.42,13.35,48.33,22.58,24.83,11,50.11,21.15,75.23,30.3Zm64-62.81A15.08,15.08,0,0,1,488.88,288L448,313.57V180.43l24.81-15.5A15.16,15.16,0,0,1,496,177.78Z" transform="translate(0 -95.97)"/><path d="M122.74,224.48l-5.48,15A404.31,404.31,0,0,0,256,264a404.07,404.07,0,0,0,138.74-24.48l-5.48-15A388.3,388.3,0,0,1,256,248,388.3,388.3,0,0,1,122.74,224.48Z" transform="translate(0 -95.97)"/><path d="M256,320a388.3,388.3,0,0,1-133.26-23.52l-5.48,15A404.31,404.31,0,0,0,256,336a404.07,404.07,0,0,0,138.74-24.48l-5.48-15A388.3,388.3,0,0,1,256,320Z" transform="translate(0 -95.97)"/></svg>